<svg width="14" height="12" viewBox="0 0 14 12" fill="none" xmlns="http://www.w3.org/2000/svg">
<path fill-rule="evenodd" clip-rule="evenodd" d="M13.528 4.51336C13.4426 4.26041 13.217 4.07593 12.9436 4.0382L9.32177 3.52949L7.70322 0.35847C7.46022 -0.11949 6.64878 -0.11949 6.40578 0.35847L4.78723 3.52949L1.16538 4.0382C0.892002 4.07593 0.66636 4.26041 0.581021 4.51336C0.495681 4.76632 0.566556 5.04303 0.76327 5.2289L3.38419 7.69696L2.76657 11.1824C2.71884 11.4438 2.83021 11.7093 3.05296 11.8658C3.27716 12.0238 3.57368 12.0433 3.81523 11.9189L7.05378 10.274L10.2938 11.9189C10.3994 11.972 10.5151 11.9986 10.6308 11.9986C10.7798 11.9986 10.9302 11.9539 11.056 11.8658C11.2773 11.7093 11.3887 11.4438 11.3424 11.1824L10.7248 7.69696L13.3457 5.2289C13.5424 5.04303 13.6133 4.76632 13.528 4.51336Z" fill="#FF3365"/>
</svg>
